<mxfile host="Electron" agent="Mozilla/5.0 (Windows NT 10.0; Win64; x64) AppleWebKit/537.36 (KHTML, like Gecko) draw.io/24.7.5 Chrome/126.0.6478.183 Electron/31.3.0 Safari/537.36" version="24.7.5">
  <diagram id="C5RBs43oDa-KdzZeNtuy" name="Page-1">
    <mxGraphModel dx="2159" dy="1735" grid="1" gridSize="10" guides="1" tooltips="1" connect="1" arrows="1" fold="1" page="1" pageScale="1" pageWidth="827" pageHeight="1169" math="0" shadow="0">
      <root>
        <mxCell id="WIyWlLk6GJQsqaUBKTNV-0" />
        <mxCell id="WIyWlLk6GJQsqaUBKTNV-1" parent="WIyWlLk6GJQsqaUBKTNV-0" />
        <mxCell id="iZUMn1lh-3qKi0mPno6k-46" value="" style="group;fillColor=#e1d5e7;strokeColor=#9673a6;" vertex="1" connectable="0" parent="WIyWlLk6GJQsqaUBKTNV-1">
          <mxGeometry x="-40" y="-120" width="1065" height="825" as="geometry" />
        </mxCell>
        <mxCell id="iZUMn1lh-3qKi0mPno6k-43" value="" style="group" vertex="1" connectable="0" parent="iZUMn1lh-3qKi0mPno6k-46">
          <mxGeometry x="730" y="120" width="280" height="400" as="geometry" />
        </mxCell>
        <mxCell id="iZUMn1lh-3qKi0mPno6k-22" value="اضافة نسب الانجاز في المراحل" style="rounded=1;whiteSpace=wrap;html=1;fontSize=12;glass=0;strokeWidth=1;shadow=0;fillColor=#fff2cc;strokeColor=#d6b656;" vertex="1" parent="iZUMn1lh-3qKi0mPno6k-43">
          <mxGeometry y="90" width="120" height="70" as="geometry" />
        </mxCell>
        <mxCell id="iZUMn1lh-3qKi0mPno6k-28" style="edgeStyle=orthogonalEdgeStyle;rounded=0;orthogonalLoop=1;jettySize=auto;html=1;entryX=0.5;entryY=0;entryDx=0;entryDy=0;endArrow=block;endFill=0;" edge="1" parent="iZUMn1lh-3qKi0mPno6k-43" source="iZUMn1lh-3qKi0mPno6k-29" target="iZUMn1lh-3qKi0mPno6k-22">
          <mxGeometry relative="1" as="geometry" />
        </mxCell>
        <mxCell id="iZUMn1lh-3qKi0mPno6k-29" value="بدء متابعة المشروع" style="rounded=1;whiteSpace=wrap;html=1;fontSize=12;glass=0;strokeWidth=1;shadow=0;fillColor=#fff2cc;strokeColor=#d6b656;" vertex="1" parent="iZUMn1lh-3qKi0mPno6k-43">
          <mxGeometry width="120" height="40" as="geometry" />
        </mxCell>
        <mxCell id="iZUMn1lh-3qKi0mPno6k-30" value="" style="rounded=0;html=1;jettySize=auto;orthogonalLoop=1;fontSize=11;endArrow=block;endFill=0;endSize=8;strokeWidth=1;shadow=0;labelBackgroundColor=none;edgeStyle=orthogonalEdgeStyle;" edge="1" parent="iZUMn1lh-3qKi0mPno6k-43" source="iZUMn1lh-3qKi0mPno6k-22" target="iZUMn1lh-3qKi0mPno6k-31">
          <mxGeometry relative="1" as="geometry">
            <mxPoint x="50" y="140" as="sourcePoint" />
            <mxPoint x="50" y="180" as="targetPoint" />
          </mxGeometry>
        </mxCell>
        <mxCell id="iZUMn1lh-3qKi0mPno6k-31" value="اسناد انشغالية العاملين&amp;nbsp;" style="rounded=1;whiteSpace=wrap;html=1;fontSize=12;glass=0;strokeWidth=1;shadow=0;fillColor=#fff2cc;strokeColor=#d6b656;" vertex="1" parent="iZUMn1lh-3qKi0mPno6k-43">
          <mxGeometry y="200" width="120" height="40" as="geometry" />
        </mxCell>
        <mxCell id="iZUMn1lh-3qKi0mPno6k-32" value="" style="rounded=0;html=1;jettySize=auto;orthogonalLoop=1;fontSize=11;endArrow=block;endFill=0;endSize=8;strokeWidth=1;shadow=0;labelBackgroundColor=none;edgeStyle=orthogonalEdgeStyle;" edge="1" parent="iZUMn1lh-3qKi0mPno6k-43" source="iZUMn1lh-3qKi0mPno6k-31" target="iZUMn1lh-3qKi0mPno6k-33">
          <mxGeometry relative="1" as="geometry">
            <mxPoint x="60" y="200" as="sourcePoint" />
            <mxPoint x="60" y="410" as="targetPoint" />
          </mxGeometry>
        </mxCell>
        <mxCell id="iZUMn1lh-3qKi0mPno6k-33" value="انهاء عملية المتابعة" style="rounded=1;whiteSpace=wrap;html=1;fontSize=12;glass=0;strokeWidth=1;shadow=0;fillColor=#fff2cc;strokeColor=#d6b656;" vertex="1" parent="iZUMn1lh-3qKi0mPno6k-43">
          <mxGeometry y="280" width="120" height="40" as="geometry" />
        </mxCell>
        <mxCell id="iZUMn1lh-3qKi0mPno6k-34" value="" style="rounded=0;html=1;jettySize=auto;orthogonalLoop=1;fontSize=11;endArrow=block;endFill=0;endSize=8;strokeWidth=1;shadow=0;labelBackgroundColor=none;edgeStyle=orthogonalEdgeStyle;" edge="1" parent="iZUMn1lh-3qKi0mPno6k-43" source="iZUMn1lh-3qKi0mPno6k-33" target="iZUMn1lh-3qKi0mPno6k-35">
          <mxGeometry relative="1" as="geometry">
            <mxPoint x="60" y="270" as="sourcePoint" />
            <mxPoint x="60" y="410" as="targetPoint" />
          </mxGeometry>
        </mxCell>
        <mxCell id="iZUMn1lh-3qKi0mPno6k-35" value="إصدار تقرير المتابعة" style="rounded=1;whiteSpace=wrap;html=1;fontSize=12;glass=0;strokeWidth=1;shadow=0;fillColor=#fff2cc;strokeColor=#d6b656;" vertex="1" parent="iZUMn1lh-3qKi0mPno6k-43">
          <mxGeometry y="360" width="120" height="40" as="geometry" />
        </mxCell>
        <mxCell id="iZUMn1lh-3qKi0mPno6k-40" value="&lt;font style=&quot;font-size: 17px;&quot;&gt;عملية المتابعة&lt;/font&gt;" style="text;html=1;align=center;verticalAlign=middle;whiteSpace=wrap;rounded=0;" vertex="1" parent="iZUMn1lh-3qKi0mPno6k-43">
          <mxGeometry x="170" y="5" width="110" height="30" as="geometry" />
        </mxCell>
        <mxCell id="iZUMn1lh-3qKi0mPno6k-44" value="" style="group" vertex="1" connectable="0" parent="iZUMn1lh-3qKi0mPno6k-46">
          <mxGeometry x="220" y="110" width="307" height="615" as="geometry" />
        </mxCell>
        <mxCell id="WIyWlLk6GJQsqaUBKTNV-3" value="اسناد مهمة ادراة المشروع&lt;div&gt;اسناد مهمة رئاسة فريق العمل&lt;/div&gt;" style="rounded=1;whiteSpace=wrap;html=1;fontSize=12;glass=0;strokeWidth=1;shadow=0;fillColor=#dae8fc;strokeColor=#6c8ebf;" parent="iZUMn1lh-3qKi0mPno6k-44" vertex="1">
          <mxGeometry y="90" width="120" height="70" as="geometry" />
        </mxCell>
        <mxCell id="WIyWlLk6GJQsqaUBKTNV-6" value="عرضه على الإدارة" style="rhombus;whiteSpace=wrap;html=1;shadow=0;fontFamily=Helvetica;fontSize=12;align=center;strokeWidth=1;spacing=6;spacingTop=-4;fillColor=#f5f5f5;fontColor=#333333;strokeColor=#666666;" parent="iZUMn1lh-3qKi0mPno6k-44" vertex="1">
          <mxGeometry x="160" y="340" width="100" height="80" as="geometry" />
        </mxCell>
        <mxCell id="iZUMn1lh-3qKi0mPno6k-3" value="" style="rounded=0;html=1;jettySize=auto;orthogonalLoop=1;fontSize=11;endArrow=block;endFill=0;endSize=8;strokeWidth=1;shadow=0;labelBackgroundColor=none;edgeStyle=orthogonalEdgeStyle;" edge="1" parent="iZUMn1lh-3qKi0mPno6k-44" source="WIyWlLk6GJQsqaUBKTNV-3" target="iZUMn1lh-3qKi0mPno6k-2">
          <mxGeometry relative="1" as="geometry">
            <mxPoint x="50" y="140" as="sourcePoint" />
            <mxPoint x="50" y="180" as="targetPoint" />
          </mxGeometry>
        </mxCell>
        <mxCell id="iZUMn1lh-3qKi0mPno6k-2" value="إضافة معلومات المشروع (مالية , جدوى ,تصنيف)" style="rounded=1;whiteSpace=wrap;html=1;fontSize=12;glass=0;strokeWidth=1;shadow=0;fillColor=#d5e8d4;strokeColor=#82b366;" vertex="1" parent="iZUMn1lh-3qKi0mPno6k-44">
          <mxGeometry y="200" width="120" height="40" as="geometry" />
        </mxCell>
        <mxCell id="iZUMn1lh-3qKi0mPno6k-7" value="" style="rounded=0;html=1;jettySize=auto;orthogonalLoop=1;fontSize=11;endArrow=block;endFill=0;endSize=8;strokeWidth=1;shadow=0;labelBackgroundColor=none;edgeStyle=orthogonalEdgeStyle;" edge="1" parent="iZUMn1lh-3qKi0mPno6k-44" source="iZUMn1lh-3qKi0mPno6k-2" target="iZUMn1lh-3qKi0mPno6k-4">
          <mxGeometry relative="1" as="geometry">
            <mxPoint x="60" y="200" as="sourcePoint" />
            <mxPoint x="60" y="410" as="targetPoint" />
          </mxGeometry>
        </mxCell>
        <mxCell id="iZUMn1lh-3qKi0mPno6k-4" value="إضافة مراحل العمل" style="rounded=1;whiteSpace=wrap;html=1;fontSize=12;glass=0;strokeWidth=1;shadow=0;fillColor=#fff2cc;strokeColor=#d6b656;" vertex="1" parent="iZUMn1lh-3qKi0mPno6k-44">
          <mxGeometry y="280" width="120" height="40" as="geometry" />
        </mxCell>
        <mxCell id="iZUMn1lh-3qKi0mPno6k-9" value="" style="rounded=0;html=1;jettySize=auto;orthogonalLoop=1;fontSize=11;endArrow=block;endFill=0;endSize=8;strokeWidth=1;shadow=0;labelBackgroundColor=none;edgeStyle=orthogonalEdgeStyle;" edge="1" parent="iZUMn1lh-3qKi0mPno6k-44" source="iZUMn1lh-3qKi0mPno6k-4" target="iZUMn1lh-3qKi0mPno6k-8">
          <mxGeometry relative="1" as="geometry">
            <mxPoint x="60" y="270" as="sourcePoint" />
            <mxPoint x="60" y="410" as="targetPoint" />
          </mxGeometry>
        </mxCell>
        <mxCell id="iZUMn1lh-3qKi0mPno6k-8" value="إضافة المشاركين" style="rounded=1;whiteSpace=wrap;html=1;fontSize=12;glass=0;strokeWidth=1;shadow=0;fillColor=#fff2cc;strokeColor=#d6b656;" vertex="1" parent="iZUMn1lh-3qKi0mPno6k-44">
          <mxGeometry y="360" width="120" height="40" as="geometry" />
        </mxCell>
        <mxCell id="iZUMn1lh-3qKi0mPno6k-11" value="" style="rounded=0;html=1;jettySize=auto;orthogonalLoop=1;fontSize=11;endArrow=block;endFill=0;endSize=8;strokeWidth=1;shadow=0;labelBackgroundColor=none;edgeStyle=orthogonalEdgeStyle;" edge="1" parent="iZUMn1lh-3qKi0mPno6k-44" source="iZUMn1lh-3qKi0mPno6k-8" target="WIyWlLk6GJQsqaUBKTNV-6">
          <mxGeometry relative="1" as="geometry">
            <mxPoint x="60" y="340" as="sourcePoint" />
            <mxPoint x="60" y="390" as="targetPoint" />
          </mxGeometry>
        </mxCell>
        <mxCell id="iZUMn1lh-3qKi0mPno6k-42" value="&lt;font style=&quot;font-size: 17px;&quot;&gt;عملية الطرح&lt;/font&gt;" style="text;html=1;align=center;verticalAlign=middle;whiteSpace=wrap;rounded=0;" vertex="1" parent="iZUMn1lh-3qKi0mPno6k-44">
          <mxGeometry x="140" y="25" width="110" height="35" as="geometry" />
        </mxCell>
        <mxCell id="iZUMn1lh-3qKi0mPno6k-0" value="طرح فكرة المشروع" style="rounded=1;whiteSpace=wrap;html=1;fontSize=12;glass=0;strokeWidth=1;shadow=0;fillColor=#dae8fc;strokeColor=#6c8ebf;" vertex="1" parent="iZUMn1lh-3qKi0mPno6k-46">
          <mxGeometry x="220" y="130" width="120" height="40" as="geometry" />
        </mxCell>
        <mxCell id="iZUMn1lh-3qKi0mPno6k-1" style="edgeStyle=orthogonalEdgeStyle;rounded=0;orthogonalLoop=1;jettySize=auto;html=1;entryX=0.5;entryY=0;entryDx=0;entryDy=0;endArrow=block;endFill=0;" edge="1" parent="iZUMn1lh-3qKi0mPno6k-46" source="iZUMn1lh-3qKi0mPno6k-0" target="WIyWlLk6GJQsqaUBKTNV-3">
          <mxGeometry relative="1" as="geometry" />
        </mxCell>
        <mxCell id="iZUMn1lh-3qKi0mPno6k-16" value="إعطاء المشروع&amp;nbsp; المعلومات الذاتية&lt;br&gt;والبدء به&amp;nbsp;" style="rounded=1;whiteSpace=wrap;html=1;fontSize=12;glass=0;strokeWidth=1;shadow=0;fillColor=#dae8fc;strokeColor=#6c8ebf;" vertex="1" parent="iZUMn1lh-3qKi0mPno6k-46">
          <mxGeometry x="527" y="470" width="126" height="50" as="geometry" />
        </mxCell>
        <mxCell id="iZUMn1lh-3qKi0mPno6k-18" style="edgeStyle=orthogonalEdgeStyle;rounded=0;orthogonalLoop=1;jettySize=auto;html=1;exitX=1;exitY=0.5;exitDx=0;exitDy=0;endArrow=block;endFill=0;" edge="1" parent="iZUMn1lh-3qKi0mPno6k-46" source="WIyWlLk6GJQsqaUBKTNV-6" target="iZUMn1lh-3qKi0mPno6k-16">
          <mxGeometry relative="1" as="geometry" />
        </mxCell>
        <mxCell id="iZUMn1lh-3qKi0mPno6k-19" value="Yes" style="edgeLabel;html=1;align=center;verticalAlign=middle;resizable=0;points=[];" vertex="1" connectable="0" parent="iZUMn1lh-3qKi0mPno6k-18">
          <mxGeometry x="-0.3243" y="-3" relative="1" as="geometry">
            <mxPoint as="offset" />
          </mxGeometry>
        </mxCell>
        <mxCell id="iZUMn1lh-3qKi0mPno6k-13" value="الغاء المشروع" style="rounded=1;whiteSpace=wrap;html=1;fontSize=12;glass=0;strokeWidth=1;shadow=0;fillColor=#dae8fc;strokeColor=#6c8ebf;" vertex="1" parent="iZUMn1lh-3qKi0mPno6k-46">
          <mxGeometry x="370" y="580" width="120" height="40" as="geometry" />
        </mxCell>
        <mxCell id="iZUMn1lh-3qKi0mPno6k-14" style="edgeStyle=orthogonalEdgeStyle;rounded=0;orthogonalLoop=1;jettySize=auto;html=1;endArrow=block;endFill=0;" edge="1" parent="iZUMn1lh-3qKi0mPno6k-46" source="WIyWlLk6GJQsqaUBKTNV-6" target="iZUMn1lh-3qKi0mPno6k-13">
          <mxGeometry relative="1" as="geometry" />
        </mxCell>
        <mxCell id="iZUMn1lh-3qKi0mPno6k-20" value="No" style="edgeLabel;html=1;align=center;verticalAlign=middle;resizable=0;points=[];" vertex="1" connectable="0" parent="iZUMn1lh-3qKi0mPno6k-14">
          <mxGeometry x="-0.4182" relative="1" as="geometry">
            <mxPoint as="offset" />
          </mxGeometry>
        </mxCell>
        <mxCell id="iZUMn1lh-3qKi0mPno6k-47" value="Text" style="edgeLabel;html=1;align=center;verticalAlign=middle;resizable=0;points=[];" vertex="1" connectable="0" parent="iZUMn1lh-3qKi0mPno6k-14">
          <mxGeometry x="-0.4" y="4" relative="1" as="geometry">
            <mxPoint as="offset" />
          </mxGeometry>
        </mxCell>
      </root>
    </mxGraphModel>
  </diagram>
</mxfile>
